<svg xmlns="http://www.w3.org/2000/svg" xmlns:xlink="http://www.w3.org/1999/xlink" version="1.1" x="0px" y="0px" viewBox="0 0 100 125" style="enable-background:new 0 0 100 100;" xml:space="preserve"><path d="M67.5,22.5H32.5c-7.6,0-14.5,3.1-19.5,8.1C8.1,35.5,5,42.4,5,50c0,15.2,12.3,27.5,27.5,27.5h34.9c7.6,0,14.5-3.1,19.5-8.1  c5-5,8.1-11.9,8.1-19.5C95,34.8,82.7,22.5,67.5,22.5z M66.5,75c-13.8,0-25-11.2-25-25s11.2-25,25-25s25,11.2,25,25S80.3,75,66.5,75z  "/><text x="0" y="115" fill="#000000" font-size="5px" font-weight="bold" font-family="'Helvetica Neue', Helvetica, Arial-Unicode, Arial, Sans-serif">Created by Alfonso Juan Dillera</text><text x="0" y="120" fill="#000000" font-size="5px" font-weight="bold" font-family="'Helvetica Neue', Helvetica, Arial-Unicode, Arial, Sans-serif">from the Noun Project</text></svg>