<svg xmlns="http://www.w3.org/2000/svg" version="1.1" viewBox="0 0 64 80" x="0px" y="0px"><title>credit-card</title><path d="M4 10c-2.204 0-4 1.796-4 4v4h64v-4c0-2.204-1.792-4-4-4zM0 30v20c0 2.208 1.796 4 4 4h56c2.208 0 4-1.792 4-4v-20zM10 38h8c1.104 0 2 0.896 2 2s-0.896 2-2 2h-8c-1.104 0-2-0.896-2-2s0.896-2 2-2z"/><text x="0" y="79" fill="#000000" font-size="5px" font-weight="bold" font-family="'Helvetica Neue', Helvetica, Arial-Unicode, Arial, Sans-serif">Created by scott desmond</text><text x="0" y="84" fill="#000000" font-size="5px" font-weight="bold" font-family="'Helvetica Neue', Helvetica, Arial-Unicode, Arial, Sans-serif">from the Noun Project</text></svg>